<?xml version="1.0" standalone="no"?>
<!DOCTYPE svg PUBLIC "-//W3C//DTD SVG 20010904//EN"
 "http://www.w3.org/TR/2001/REC-SVG-20010904/DTD/svg10.dtd">
<svg version="1.0" xmlns="http://www.w3.org/2000/svg"
 width="20.00pt" height="20.00pt" viewBox="0 0 880.000000 920.000000"
 preserveAspectRatio="xMidYMid meet">
<metadata>
Created by potrace 1.15, written by Peter Selinger 2001-2017
</metadata>
<g transform="translate(0.000000,920.000000) scale(0.100000,-0.100000)" stroke="none">
<path d="M5445 8779 c-596 -70 -1157 -247 -1730 -548 -1079 -567 -1985 -1436
-2615 -2506 -112 -191 -295 -565 -373 -765 -161 -410 -265 -818 -309 -1215
-17 -153 -17 -586 0 -730 7 -60 26 -175 42 -255 53 -266 109 -427 236 -687 75
-154 87 -173 108 -173 55 0 283 95 621 259 690 335 1156 651 1599 1081 251
245 414 434 569 660 225 331 356 616 492 1067 81 267 103 332 168 498 107 275
275 562 473 810 117 146 429 457 579 577 583 466 1277 806 2174 1063 123 36
238 67 257 71 19 3 37 11 40 16 7 11 -143 160 -246 244 -230 187 -538 346
-850 438 -349 103 -843 141 -1235 95z"/>
<path d="M7765 7681 c-468 -192 -769 -349 -1175 -611 -774 -499 -1355 -1151
-1678 -1886 -68 -154 -139 -354 -206 -581 -109 -366 -164 -512 -282 -745 -247
-487 -715 -992 -1254 -1353 -518 -346 -1189 -640 -1944 -850 -110 -30 -201
-57 -204 -60 -7 -6 134 -141 243 -233 127 -107 276 -202 450 -287 351 -172
645 -244 1079 -267 291 -15 532 -2 786 41 1384 237 2755 1128 3722 2419 427
570 746 1196 926 1822 176 608 217 1221 116 1740 -47 243 -140 520 -231 690
-73 137 -137 240 -148 240 -5 0 -95 -36 -200 -79z"/>
</g>
</svg>
